<svg width="503" height="32" viewBox="0 0 503 32" fill="none" xmlns="http://www.w3.org/2000/svg">
<path d="M-2.18365 15.9322C21.3757 -0.148344 52.2774 -1.72644 80.1944 4.06656C108.111 9.85956 134.158 22.3045 160.821 32.2925C220.615 55.0051 289.463 66.0517 347.306 38.7047C364.757 30.4547 380.616 18.9686 398.444 11.5775C445.603 -7.89897 499.925 4.16646 546.347 25.5606V124.182H-4.41223V117.729L-2.18365 15.9322Z" fill="url(#paint0_linear_445_10627)" fill-opacity="0.5"/>
<path opacity="0.5" d="M218.313 52.5537C250.581 24.7622 291.604 9.32898 334.119 8.98633C389.834 8.72664 442.086 34.3957 495.652 50.0767C583.602 75.8256 678.953 73.3286 766.266 45.1826V124.607H219.805L218.313 52.5537Z" fill="url(#paint1_linear_445_10627)"/>
<defs>
<linearGradient id="paint0_linear_445_10627" x1="276.569" y1="-21.2828" x2="270.111" y2="125.358" gradientUnits="userSpaceOnUse">
<stop stop-color="white" stop-opacity="0"/>
<stop offset="0.93" stop-color="white"/>
</linearGradient>
<linearGradient id="paint1_linear_445_10627" x1="384.919" y1="175.206" x2="542.437" y2="48.8794" gradientUnits="userSpaceOnUse">
<stop stop-color="white" stop-opacity="0"/>
<stop offset="0.93" stop-color="white"/>
</linearGradient>
</defs>
</svg>
