<svg width="22" height="17" viewBox="0 0 22 17" fill="none" xmlns="http://www.w3.org/2000/svg">
<path d="M17.77 1.33005C16.44 0.710046 15 0.260046 13.5 4.59982e-05C13.4868 -0.000374605 13.4738 0.00209348 13.4617 0.00727676C13.4496 0.01246 13.4388 0.0202326 13.43 0.0300462C13.25 0.360046 13.04 0.790046 12.9 1.12005C11.309 0.880046 9.691 0.880046 8.1 1.12005C7.96 0.780046 7.75 0.360046 7.56 0.0300462C7.55 0.0100462 7.52 4.59982e-05 7.49 4.59982e-05C5.99 0.260046 4.56 0.710046 3.22 1.33005C3.21 1.33005 3.2 1.34005 3.19 1.35005C0.469995 5.42005 -0.280005 9.38004 0.0899952 13.3C0.0899952 13.32 0.0999951 13.34 0.119995 13.35C1.92 14.67 3.65 15.47 5.36 16C5.39 16.01 5.41999 16 5.43 15.98C5.83 15.43 6.19 14.85 6.5 14.24C6.52 14.2 6.5 14.16 6.46 14.15C5.89 13.93 5.35 13.67 4.82 13.37C4.78 13.35 4.77999 13.29 4.81 13.26C4.92 13.18 5.02999 13.09 5.14 13.01C5.16 12.99 5.19 12.99 5.21 13C8.65 14.57 12.36 14.57 15.76 13C15.78 12.99 15.81 12.99 15.83 13.01C15.94 13.1 16.05 13.18 16.16 13.27C16.2 13.3 16.2 13.36 16.15 13.38C15.63 13.69 15.08 13.94 14.51 14.16C14.47 14.17 14.46 14.22 14.47 14.25C14.79 14.86 15.15 15.44 15.54 15.99C15.57 16 15.6 16.01 15.63 16C17.35 15.47 19.08 14.67 20.88 13.35C20.9 13.34 20.91 13.32 20.91 13.3C21.35 8.77004 20.18 4.84005 17.81 1.35005C17.8 1.34005 17.79 1.33005 17.77 1.33005ZM7.02 10.91C5.99 10.91 5.13 9.96005 5.13 8.79005C5.13 7.62005 5.97 6.67005 7.02 6.67005C8.08 6.67005 8.92 7.63005 8.91 8.79005C8.91 9.96005 8.07 10.91 7.02 10.91ZM13.99 10.91C12.96 10.91 12.1 9.96005 12.1 8.79005C12.1 7.62005 12.94 6.67005 13.99 6.67005C15.05 6.67005 15.89 7.63005 15.88 8.79005C15.88 9.96005 15.05 10.91 13.99 10.91Z" fill="#1F7499"/>
</svg>
