<svg width="21" height="20" viewBox="0 0 21 20" fill="none" xmlns="http://www.w3.org/2000/svg">
<path d="M10.5 0C4.98 0 0.5 4.48 0.5 10C0.5 15.52 4.98 20 10.5 20C16.02 20 20.5 15.52 20.5 10C20.5 4.48 16.02 0 10.5 0ZM16.3 11.33C16.32 11.47 16.33 11.62 16.33 11.77C16.33 14.01 13.72 15.83 10.5 15.83C7.28 15.83 4.67 14.01 4.67 11.77C4.67 11.62 4.68 11.47 4.7 11.33C4.19 11.1 3.84 10.59 3.84 10C3.83852 9.71325 3.9218 9.43245 4.07939 9.19287C4.23698 8.9533 4.46185 8.76563 4.72576 8.65345C4.98966 8.54126 5.28083 8.50956 5.56269 8.56232C5.84456 8.61508 6.10454 8.74995 6.31 8.95C7.32 8.22 8.72 7.76 10.27 7.71L11.01 4.22C11.02 4.15 11.06 4.09 11.12 4.06C11.18 4.02 11.25 4.01 11.32 4.02L13.74 4.54C13.8221 4.37358 13.9472 4.23215 14.1023 4.13038C14.2575 4.02861 14.4371 3.9702 14.6224 3.96122C14.8077 3.95224 14.9921 3.99301 15.1564 4.07931C15.3207 4.1656 15.4589 4.29428 15.5566 4.45199C15.6544 4.60969 15.7082 4.79069 15.7125 4.9762C15.7167 5.16171 15.6712 5.34498 15.5808 5.507C15.4903 5.66901 15.3582 5.80388 15.198 5.8976C15.0379 5.99132 14.8556 6.04049 14.67 6.04C14.11 6.04 13.66 5.6 13.63 5.05L11.46 4.59L10.8 7.71C12.33 7.76 13.7 8.23 14.7 8.95C14.8533 8.80361 15.0367 8.69249 15.2375 8.6244C15.4382 8.55631 15.6514 8.5329 15.8621 8.55581C16.0728 8.57872 16.276 8.6474 16.4574 8.75703C16.6388 8.86667 16.7941 9.01461 16.9123 9.19052C17.0306 9.36643 17.109 9.56606 17.142 9.77543C17.1751 9.98481 17.162 10.1989 17.1037 10.4027C17.0454 10.6064 16.9432 10.795 16.8044 10.9552C16.6656 11.1154 16.4934 11.2433 16.3 11.33Z" fill="#1F7499"/>
</svg>
