<svg width="23" height="18" viewBox="0 0 23 18" fill="none" xmlns="http://www.w3.org/2000/svg">
<path d="M22.75 2.13282C21.906 2.49955 21.013 2.74116 20.0992 2.85001C21.0595 2.28769 21.7817 1.39434 22.1303 0.337508C21.2224 0.86841 20.2307 1.24092 19.1978 1.43907C18.7629 0.983225 18.2397 0.620588 17.6603 0.373201C17.0808 0.125814 16.4571 -0.00115656 15.827 7.93801e-06C13.2761 7.93801e-06 11.2117 2.03438 11.2117 4.5422C11.2099 4.89102 11.2499 5.23881 11.3308 5.57813C9.50157 5.49238 7.7104 5.02575 6.07187 4.2081C4.43333 3.39044 2.98351 2.23977 1.81516 0.829695C1.40527 1.52069 1.1885 2.30909 1.1875 3.11251C1.1875 4.68751 2.00922 6.0797 3.25 6.89532C2.51487 6.87787 1.79481 6.68331 1.15094 6.32813V6.38438C1.15094 8.58751 2.74469 10.4203 4.85406 10.8375C4.4574 10.9432 4.04864 10.9968 3.63812 10.9969C3.34683 10.9974 3.0562 10.9691 2.77047 10.9125C3.35687 12.7172 5.06359 14.0297 7.08531 14.0672C5.44252 15.3333 3.4256 16.0175 1.35156 16.0125C0.983415 16.012 0.615609 15.99 0.25 15.9469C2.35993 17.2942 4.81255 18.0068 7.31594 18C15.8172 18 20.4616 11.0766 20.4616 5.07188C20.4616 4.87501 20.4564 4.67813 20.447 4.48595C21.3485 3.84472 22.1283 3.04787 22.75 2.13282Z" fill="#1F7499"/>
</svg>
